<?xml version="1.0" standalone="no"?>
<!DOCTYPE svg PUBLIC "-//W3C//DTD SVG 20010904//EN"
 "http://www.w3.org/TR/2001/REC-SVG-20010904/DTD/svg10.dtd">
<svg version="1.0" xmlns="http://www.w3.org/2000/svg"
 width="255.000000pt" height="120.000000pt" viewBox="0 0 255.000000 120.000000"
 preserveAspectRatio="xMidYMid meet">

<g transform="translate(0.000000,120.000000) scale(0.100000,-0.100000)"
fill="#000000" stroke="none">
<path d="M60 725 l0 -116 113 3 112 3 0 110 0 110 -112 3 -113 3 0 -116z"/>
<path d="M2235 758 c-28 -16 -35 -28 -35 -65 0 -26 -4 -33 -20 -33 -11 0 -20
-7 -20 -15 0 -8 9 -15 20 -15 19 0 20 -7 20 -95 0 -78 3 -95 15 -95 12 0 15
17 15 95 l0 95 50 0 50 0 0 -57 c0 -32 5 -75 11 -95 9 -35 13 -38 44 -38 39 0
48 17 13 22 -21 3 -23 9 -26 86 -3 82 -3 82 23 82 16 0 25 6 25 15 0 9 -9 15
-25 15 -21 0 -25 5 -25 31 0 24 -3 30 -16 25 -9 -3 -18 -6 -20 -6 -2 0 -4 -11
-4 -25 0 -23 -3 -25 -51 -25 l-50 0 3 38 c3 32 7 37 31 40 30 4 36 17 11 26
-19 7 -15 8 -39 -6z"/>
<path d="M1061 740 c-16 -9 -6 -30 15 -30 15 0 20 25 6 34 -4 2 -14 1 -21 -4z"/>
<path d="M670 591 c0 -128 2 -151 15 -151 12 0 15 19 15 115 0 63 3 115 8 115
4 0 29 -52 57 -115 27 -63 54 -114 59 -112 5 2 31 53 59 115 28 62 54 112 59
112 4 0 8 -52 8 -115 0 -96 3 -115 15 -115 13 0 15 23 15 151 0 150 0 150 -22
147 -18 -2 -33 -26 -74 -116 -29 -62 -56 -113 -60 -113 -5 -1 -31 50 -59 112
-40 91 -55 115 -73 117 -22 3 -22 2 -22 -147z"/>
<path d="M1060 550 c0 -91 3 -110 15 -110 12 0 15 19 15 110 0 91 -3 110 -15
110 -12 0 -15 -19 -15 -110z"/>
<path d="M1175 627 c-30 -30 -35 -42 -35 -82 0 -63 39 -105 98 -105 45 0 72 8
72 21 0 5 -19 6 -43 3 -61 -9 -92 18 -92 79 0 65 25 90 88 85 38 -2 47 0 45
12 -2 10 -18 16 -51 18 -43 3 -51 0 -82 -31z"/>
<path d="M1360 550 c0 -91 3 -110 15 -110 12 0 15 14 15 68 0 81 15 116 53
120 15 2 27 9 27 18 0 18 -35 18 -54 -1 -8 -8 -17 -15 -20 -15 -3 0 -6 7 -6
15 0 8 -7 15 -15 15 -12 0 -15 -19 -15 -110z"/>
<path d="M1534 642 c-31 -25 -44 -55 -44 -102 0 -33 6 -48 29 -71 25 -24 38
-29 79 -29 44 0 54 4 76 31 20 24 26 41 26 81 0 41 -5 54 -29 79 -24 23 -38
29 -73 29 -26 0 -52 -7 -64 -18z m118 -29 c26 -23 25 -106 -2 -133 -48 -48
-130 -6 -130 67 0 57 22 83 72 83 25 0 49 -7 60 -17z"/>
<path d="M1778 650 c-54 -32 -38 -88 33 -117 34 -13 40 -19 37 -42 -3 -25 -6
-26 -56 -25 -36 1 -52 -2 -49 -10 2 -6 26 -11 57 -11 45 0 56 4 72 26 27 35
12 62 -47 88 -37 16 -45 25 -45 46 0 26 2 27 50 23 41 -2 50 0 48 12 -4 18
-75 25 -100 10z"/>
<path d="M1970 647 c-56 -44 -67 -125 -24 -176 22 -27 32 -31 76 -31 41 0 54
5 79 29 25 25 29 37 29 81 0 44 -4 56 -29 81 -24 23 -38 29 -73 29 -24 0 -50
-6 -58 -13z m114 -39 c9 -12 16 -42 16 -65 0 -54 -26 -83 -74 -83 -60 0 -96
74 -65 133 16 30 28 37 71 37 27 0 41 -6 52 -22z"/>
<path d="M60 480 l0 -110 110 0 110 0 0 110 0 110 -110 0 -110 0 0 -110z"/>
</g>
</svg>
