<?xml version="1.0" standalone="no"?>
<!DOCTYPE svg PUBLIC "-//W3C//DTD SVG 20010904//EN"
 "http://www.w3.org/TR/2001/REC-SVG-20010904/DTD/svg10.dtd">
<svg version="1.0" xmlns="http://www.w3.org/2000/svg"
 width="1080.000000pt" height="1080.000000pt" viewBox="0 0 1080.000000 1080.000000"
 preserveAspectRatio="xMidYMid meet">
<metadata>
Created by potrace 1.16, written by Peter Selinger 2001-2019
</metadata>
<g transform="translate(0.000000,1080.000000) scale(0.100000,-0.100000)"
fill="#000000" stroke="none">
<path d="M3370 10390 c0 -6 11 -15 25 -20 14 -5 25 -14 25 -20 0 -13 -37 -13
-45 0 -8 13 -64 14 -233 7 -58 -3 -87 -8 -93 -18 -7 -12 -9 -12 -9 1 0 10 -3
11 -8 4 -4 -7 -18 -14 -32 -17 -19 -3 -15 -5 15 -7 22 -2 45 -4 50 -5 6 -2 16
-3 24 -4 26 -2 4 -12 -34 -16 -20 -2 -47 -13 -59 -24 -12 -12 -28 -21 -36 -21
-9 0 -7 -5 6 -14 12 -10 23 -11 31 -5 7 7 14 6 18 -1 3 -6 11 -8 16 -5 5 4 9
1 9 -4 0 -6 9 -11 20 -11 11 0 20 -4 20 -10 0 -13 -47 -13 -55 0 -4 7 -13 6
-27 -1 -16 -9 -26 -7 -50 11 -23 17 -37 20 -72 15 -38 -6 -45 -11 -48 -34 -3
-23 1 -30 25 -41 15 -6 27 -14 25 -16 -2 -2 -40 3 -83 10 -64 10 -99 10 -177
0 -53 -7 -109 -18 -124 -26 -37 -17 -44 -48 -12 -49 l23 0 -22 -11 c-24 -11
-32 -33 -10 -25 6 2 23 -4 36 -14 15 -12 40 -19 67 -19 26 0 44 -5 44 -11 0
-6 6 -9 14 -6 7 3 23 -7 35 -24 12 -16 30 -29 40 -29 25 0 44 -23 30 -37 -7
-7 8 -21 46 -44 30 -18 55 -36 55 -40 0 -10 -72 7 -79 19 -3 5 -26 10 -50 10
-25 1 -52 8 -60 15 -26 22 -99 48 -106 37 -3 -6 -19 -10 -35 -10 -36 0 -45
-13 -24 -34 9 -10 11 -16 4 -16 -7 0 -26 16 -43 35 l-31 35 -90 -1 c-50 -1
-78 -4 -63 -6 32 -5 51 -40 41 -79 -7 -29 11 -55 34 -48 13 4 13 2 -3 -10 -11
-9 -25 -14 -31 -12 -7 3 -18 -2 -24 -9 -10 -12 -5 -18 24 -32 20 -9 36 -20 36
-25 0 -4 7 -5 15 -2 8 4 15 1 15 -5 0 -6 -6 -11 -12 -11 -8 0 -5 -7 6 -15 11
-8 33 -26 49 -41 28 -25 28 -27 11 -37 -13 -7 -19 -7 -22 1 -2 7 -10 12 -18
12 -8 0 -14 7 -14 15 0 8 -15 22 -32 30 -18 8 -51 29 -73 45 -82 62 -138 88
-198 92 -64 5 -76 -1 -45 -23 52 -36 61 -47 62 -77 1 -18 -1 -32 -4 -32 -3 0
-21 10 -40 22 l-35 22 29 5 c24 5 27 8 15 18 -23 19 -69 34 -69 23 0 -6 7 -10
15 -10 17 0 19 -9 5 -30 -6 -10 -10 -11 -10 -3 0 7 -14 20 -32 29 -34 18 -88
35 -88 29 0 -14 42 -70 52 -70 7 0 13 -7 13 -16 0 -25 31 -49 64 -49 23 0 38
-10 68 -45 20 -25 42 -45 48 -45 11 0 55 -53 55 -66 0 -3 -12 -4 -27 0 -26 5
-27 5 -5 -6 30 -15 28 -26 -3 -20 -14 2 -25 8 -25 13 0 5 -6 9 -12 9 -13 0
-33 15 -125 92 -54 46 -74 71 -46 61 13 -5 12 1 -6 26 -32 45 -64 63 -95 55
-28 -7 -26 -24 2 -24 9 0 25 -7 35 -14 16 -13 16 -15 -9 -31 -15 -9 -24 -13
-21 -8 4 6 -6 20 -21 33 -15 13 -36 30 -46 39 -46 39 9 -36 68 -94 34 -33 65
-69 69 -78 4 -10 10 -16 15 -14 4 3 16 -1 27 -9 17 -13 18 -16 5 -25 -12 -8
-11 -9 6 -5 15 5 32 -4 60 -31 76 -71 169 -146 236 -190 37 -24 70 -48 74 -54
8 -14 3 -12 -71 26 -65 33 -87 48 -123 85 -14 14 -22 19 -18 13 4 -8 1 -13 -8
-13 -23 0 -20 -31 3 -37 11 -3 25 -18 31 -34 8 -17 20 -29 31 -29 11 0 19 -6
19 -12 0 -7 18 -22 40 -32 48 -23 79 -53 42 -42 -35 12 -26 -1 23 -30 25 -14
44 -28 42 -30 -9 -9 -63 19 -159 84 -55 37 -111 74 -124 83 -33 22 -75 61 -99
94 -11 14 -37 45 -57 68 -34 37 -40 50 -37 73 0 4 -5 10 -12 15 -7 4 -13 24
-13 43 0 28 -4 36 -18 36 -20 0 -44 36 -27 42 6 2 1 12 -11 23 -21 19 -21 19
-14 -1 6 -13 1 -11 -17 9 -17 20 -36 29 -66 33 -47 5 -54 -3 -23 -31 11 -10
20 -23 20 -29 0 -6 36 -47 80 -91 44 -44 80 -88 80 -98 0 -20 -7 -13 -111 101
-31 34 -61 62 -67 62 -5 0 -13 11 -16 25 -4 14 -11 25 -16 25 -13 0 -13 -27 0
-35 13 -8 13 -25 1 -25 -5 0 -24 12 -42 27 -28 24 -31 25 -20 6 11 -22 101
-92 105 -83 4 7 67 -43 114 -90 23 -22 46 -40 52 -40 5 0 10 -9 10 -20 0 -11
5 -20 10 -20 6 0 10 5 10 10 0 6 5 10 10 10 6 0 10 -9 10 -19 0 -11 6 -26 13
-33 8 -7 20 -25 27 -38 l13 -25 -24 23 c-77 71 -103 92 -119 92 -11 0 -20 10
-24 25 -8 31 -22 32 -29 4 -4 -15 0 -23 13 -26 11 -3 25 -17 31 -32 7 -14 30
-41 53 -58 55 -42 146 -132 146 -144 0 -6 -8 -6 -19 1 -29 15 -31 13 -17 -20
7 -17 29 -45 49 -61 20 -17 37 -37 37 -44 0 -8 8 -19 18 -24 9 -6 12 -11 6
-11 -6 0 -24 15 -41 33 -16 17 -47 47 -67 66 -23 22 -35 40 -31 50 3 8 3 12 0
9 -4 -4 -29 16 -57 43 -28 27 -65 56 -83 63 -18 8 -38 24 -45 35 -6 12 -28 32
-48 45 -20 14 -50 36 -66 50 -16 14 -36 26 -45 26 -11 -1 -8 -7 12 -23 15 -13
27 -28 27 -35 0 -6 7 -9 17 -5 12 5 15 2 10 -9 -3 -9 2 -23 12 -32 9 -9 27
-36 39 -60 13 -24 29 -47 37 -50 8 -3 21 -18 28 -33 6 -15 47 -63 89 -107 43
-43 75 -82 72 -87 -3 -5 17 -23 43 -40 55 -35 23 -31 -46 7 -24 13 -48 24 -53
24 -17 0 3 -19 37 -36 19 -9 35 -20 35 -25 0 -5 6 -9 13 -9 8 0 22 -9 33 -21
19 -21 19 -21 -11 -8 -17 7 -36 17 -42 22 -8 6 -13 6 -13 -1 0 -6 25 -23 55
-38 31 -14 58 -30 61 -35 3 -5 24 -18 47 -30 l42 -20 -38 5 c-23 3 -35 1 -31
-5 3 -6 -5 -7 -23 -4 -21 5 -24 4 -13 -4 8 -5 11 -13 7 -17 -4 -4 -15 0 -25 9
-10 10 -34 17 -53 17 -21 0 -29 -3 -21 -8 18 -12 -31 -36 -57 -29 -29 7 -27
-19 2 -34 l22 -12 -28 -12 c-15 -6 -25 -14 -22 -16 3 -3 0 -20 -6 -38 -8 -22
-8 -35 -2 -40 6 -3 15 -16 22 -28 6 -13 19 -23 28 -23 14 0 13 -3 -4 -22 -12
-13 -23 -34 -25 -48 -2 -14 -9 -24 -16 -22 -7 1 -12 -9 -12 -24 0 -26 0 -26
30 11 17 21 30 41 30 44 0 3 11 11 25 17 22 11 24 10 15 -6 -12 -23 -13 -40
-1 -21 7 10 13 11 30 2 15 -8 21 -9 21 -1 0 6 5 8 10 5 15 -10 12 -35 -5 -35
-8 0 -15 5 -15 10 0 6 -6 10 -14 10 -15 0 -42 -28 -34 -36 8 -7 61 -7 86 1 32
11 28 -11 -7 -31 -17 -10 -27 -22 -24 -27 3 -5 9 -3 14 4 7 11 9 11 9 1 0 -9
6 -8 25 4 13 8 29 13 35 9 6 -4 19 0 28 8 29 24 60 37 76 31 17 -7 22 -34 6
-34 -5 0 -10 -4 -10 -8 0 -4 16 -6 35 -4 19 2 32 8 30 13 -7 11 43 24 53 14 4
-4 1 -10 -6 -12 -6 -3 -10 -9 -6 -14 8 -13 104 -11 104 2 0 6 -12 10 -27 9
-43 -3 -50 0 -24 11 13 5 46 6 72 3 41 -6 49 -4 49 10 0 10 9 16 24 16 14 0
28 5 31 10 4 7 29 8 67 4 54 -6 61 -5 55 10 -8 21 1 20 55 -3 60 -25 173 -35
189 -15 9 10 26 13 62 10 29 -3 57 0 68 7 15 9 23 9 39 0 13 -9 21 -9 26 -2 3
6 19 9 34 6 15 -3 31 -2 37 4 20 20 214 33 225 15 5 -7 8 -6 8 4 0 13 14 16
63 18 233 6 275 12 320 50 11 10 17 11 17 4 0 -20 37 -13 43 8 6 23 27 27 27
5 0 -13 4 -14 23 -3 12 6 36 12 52 12 23 1 31 6 33 24 2 12 7 22 12 22 4 0 11
-10 14 -22 6 -22 7 -22 21 -4 8 10 16 24 18 30 2 6 16 10 31 8 20 -1 29 4 36
21 8 20 9 20 10 2 1 -19 2 -19 20 3 14 17 25 22 40 17 11 -3 20 -2 20 3 0 15
38 21 53 8 8 -6 17 -18 20 -26 5 -13 6 -13 6 0 1 8 10 21 22 28 18 12 23 11
35 -7 13 -18 18 -19 37 -8 12 6 25 17 29 22 15 20 8 -11 -8 -33 -8 -12 -11
-22 -5 -22 6 0 15 9 21 20 14 27 30 25 22 -2 -5 -22 -5 -22 12 -5 21 21 36 22
36 2 0 -21 18 -19 32 5 15 23 76 28 96 8 10 -10 17 -10 32 0 11 6 29 12 39 12
11 0 23 5 26 10 5 8 11 8 20 0 9 -8 26 -8 57 0 23 5 50 9 58 8 8 -1 37 2 64 6
40 7 50 6 58 -8 5 -8 33 -23 63 -32 49 -14 54 -18 53 -41 -2 -15 3 -28 10 -31
7 -2 18 -9 23 -16 5 -6 25 -28 44 -50 40 -44 42 -53 18 -59 -15 -4 -15 -5 -2
-6 9 0 24 -19 35 -41 13 -27 26 -40 43 -42 31 -4 39 -28 12 -35 -24 -6 -28
-23 -5 -23 8 0 12 -4 9 -10 -3 -5 -1 -10 4 -10 6 0 11 -7 11 -16 0 -12 9 -15
37 -12 32 3 38 0 43 -22 4 -18 14 -26 33 -28 27 -3 35 -16 18 -26 -5 -4 -11
-1 -13 6 -2 6 -10 8 -16 4 -9 -6 -6 -14 10 -32 40 -43 78 -58 150 -59 52 0 72
-4 85 -19 17 -18 16 -18 -39 -11 -60 7 -82 -7 -30 -19 41 -10 82 -30 82 -39 0
-5 10 -17 23 -28 12 -10 17 -18 10 -19 -6 0 -15 5 -18 10 -3 6 -13 10 -21 10
-8 0 -14 -4 -14 -10 0 -5 6 -10 13 -10 7 0 22 -7 33 -16 18 -15 18 -15 -3 -9
-31 9 -30 -18 1 -34 17 -10 22 -19 18 -34 -5 -20 -5 -20 -13 1 -9 23 -17 26
-35 14 -7 -5 -3 -18 13 -41 14 -21 23 -28 23 -17 0 23 17 20 25 -5 5 -14 12
-19 23 -15 15 5 15 4 0 -8 -26 -19 -22 -27 8 -20 18 5 25 3 21 -3 -4 -6 0 -16
8 -23 22 -18 18 -28 -12 -33 -22 -3 -20 -4 10 -6 22 0 47 -9 59 -21 12 -11 18
-20 13 -20 -4 0 0 -9 11 -21 15 -17 16 -23 6 -40 -15 -24 -6 -59 19 -77 20
-14 26 -48 10 -54 -5 -2 -5 -21 -1 -43 4 -22 8 -33 9 -25 1 13 2 13 11 0 15
-25 23 -3 13 38 -6 23 -6 48 -1 63 5 13 6 46 2 74 -4 27 -7 58 -5 67 3 27 -19
98 -31 98 -6 0 -6 6 3 16 9 10 9 18 2 22 -6 4 -9 20 -7 35 1 15 -4 46 -11 68
-8 21 -12 39 -8 39 3 0 0 7 -7 15 -6 8 -9 18 -6 23 3 4 -6 55 -20 113 -14 57
-27 121 -30 142 -6 42 -63 218 -82 254 -7 12 -12 30 -12 40 0 10 -6 28 -14 39
-8 11 -19 39 -26 62 -6 24 -24 64 -40 89 -16 25 -27 50 -24 54 2 5 0 16 -5 26
-5 10 -26 54 -47 98 -21 44 -46 86 -56 93 -10 7 -18 21 -18 31 0 10 -6 24 -14
30 -8 7 -18 26 -21 42 -4 17 -13 33 -21 36 -8 3 -11 9 -8 14 3 5 -1 11 -8 14
-8 3 -23 25 -33 50 -17 38 -23 43 -44 38 -20 -5 -22 -3 -16 16 4 14 2 23 -9
27 -8 3 -18 14 -21 25 -5 15 -12 18 -32 13 l-25 -7 16 32 c18 34 17 38 -38 92
-16 15 -34 26 -38 22 -5 -3 -18 4 -28 15 -10 11 -32 26 -49 33 -17 8 -31 17
-31 21 0 5 -9 8 -20 8 -11 0 -20 4 -20 9 0 5 -12 12 -27 16 -14 3 -38 15 -51
26 -35 27 -110 59 -138 59 -15 0 -24 6 -24 15 0 15 -17 20 -54 16 -10 -1 -25
8 -33 18 -8 12 -20 18 -29 14 -8 -3 -21 2 -28 13 -16 21 -87 25 -94 6 -2 -7
-8 -10 -13 -6 -5 3 -9 1 -9 -4 0 -5 -9 -21 -21 -36 -17 -22 -24 -25 -36 -14
-12 10 -18 9 -28 -6 -13 -16 -14 -16 -20 3 -3 11 -15 23 -26 26 -19 6 -44 51
-74 131 -17 46 -68 123 -81 124 -7 0 -15 7 -18 16 -4 10 -13 13 -25 9 -16 -5
-26 3 -46 34 -14 23 -30 41 -35 41 -6 0 -10 6 -10 13 0 6 -13 25 -30 40 -16
16 -30 37 -30 48 0 10 -4 19 -9 19 -5 0 -12 8 -14 18 -4 13 -5 11 -6 -5 0 -13
-6 -23 -12 -23 -6 0 -8 7 -5 15 3 9 1 15 -7 14 -23 -3 -32 1 -67 31 -27 23
-32 32 -21 39 9 6 10 11 2 15 -6 4 -15 4 -21 1 -6 -3 -7 1 -4 9 3 9 1 16 -5
16 -19 0 -101 55 -101 67 0 7 -3 13 -7 14 -32 3 -61 12 -80 24 -19 13 -23 13
-23 1 0 -7 17 -22 38 -32 21 -10 31 -19 24 -22 -8 -2 -28 3 -45 11 -18 8 -43
19 -57 25 -14 5 -38 15 -55 22 -34 14 -116 40 -127 40 -5 0 -8 -5 -8 -10z"/>
<path d="M1411 9207 c47 -40 49 -93 2 -62 -14 9 -27 14 -30 11 -7 -7 16 -28
50 -45 15 -8 27 -18 27 -23 0 -5 11 -13 25 -18 14 -5 25 -14 25 -20 0 -6 5 -8
10 -5 6 3 10 -1 10 -10 0 -9 5 -13 10 -10 6 3 7 18 3 33 -6 25 -3 23 47 -21
29 -26 63 -50 76 -53 13 -3 22 -10 19 -15 -6 -9 53 -55 66 -51 5 1 9 -2 9 -7
0 -10 79 -71 92 -71 19 0 6 17 -27 34 -19 11 -61 47 -93 80 -61 64 -163 146
-182 146 -7 0 -41 29 -76 65 -36 36 -70 65 -77 65 -6 -1 0 -11 14 -23z"/>
<path d="M4814 7190 c-6 -6 -32 -12 -60 -14 -60 -5 -95 -16 -89 -27 8 -11 -28
-29 -59 -29 -14 0 -26 -4 -26 -9 0 -5 -41 -10 -90 -13 -51 -2 -95 -9 -102 -16
-14 -14 -42 -16 -33 -2 8 14 3 13 -34 -6 -18 -9 -43 -14 -57 -11 -13 2 -24 1
-24 -3 0 -4 -22 -10 -49 -12 -48 -5 -109 -40 -110 -64 -1 -11 -56 -64 -67 -64
-4 0 -4 9 -1 20 3 11 1 20 -4 20 -5 0 -9 -11 -9 -24 0 -14 -10 -33 -23 -43
-30 -24 -39 -50 -27 -74 8 -15 7 -19 -4 -19 -7 0 -27 -11 -42 -24 -16 -14 -40
-34 -54 -46 -14 -12 -20 -19 -13 -16 6 4 14 -3 18 -14 16 -51 99 -45 132 11
20 33 22 34 57 15 23 -12 24 -15 11 -26 -9 -7 -15 -29 -15 -54 0 -88 -3 -106
-16 -106 -17 0 -18 -17 -2 -22 7 -3 13 -18 14 -34 2 -43 3 -44 22 -44 22 0 42
-19 42 -40 0 -9 9 -25 20 -35 21 -19 27 -45 11 -45 -5 0 -12 6 -14 13 -4 9 -8
8 -17 -3 -9 -11 -13 -12 -17 -2 -7 18 -33 14 -33 -6 0 -22 34 -52 58 -52 10 0
25 -9 35 -20 9 -11 25 -20 34 -19 15 0 15 2 -2 8 -36 14 175 18 250 5 90 -17
105 -17 85 -4 -11 7 3 9 45 8 88 -2 205 16 205 32 0 5 -31 12 -70 16 -38 3
-70 11 -70 15 0 5 11 9 24 9 14 0 27 4 30 9 3 4 33 11 66 15 33 4 60 12 60 17
0 6 -12 8 -27 5 -16 -3 -34 -2 -41 2 -18 12 -92 -9 -92 -25 0 -16 -15 -17 -40
-3 -11 6 -21 6 -24 1 -3 -5 -15 -7 -25 -4 -10 3 -22 0 -25 -6 -13 -20 -36 -12
-36 13 0 23 3 24 100 31 68 4 105 11 115 22 8 8 15 10 15 4 0 -5 17 -9 39 -8
27 1 37 5 34 14 -4 9 4 13 25 13 17 0 32 6 36 15 4 10 20 15 52 15 33 0 51 5
60 18 10 14 16 15 32 5 14 -9 22 -9 31 0 8 8 11 8 11 -1 0 -21 21 -13 51 19
21 23 34 29 49 24 13 -4 29 -1 38 7 31 24 61 38 84 38 21 0 21 1 -7 30 -16 17
-35 30 -42 30 -7 0 -13 5 -13 10 0 6 -4 10 -10 10 -5 0 -30 16 -56 35 -25 19
-54 35 -64 35 -10 0 -21 4 -24 9 -10 16 -290 71 -365 71 -23 0 -41 5 -41 11 0
7 -8 6 -22 -3 -24 -15 -62 -13 -53 3 3 5 -1 6 -10 2 -12 -4 -13 -8 -5 -13 9
-5 9 -9 1 -14 -14 -9 -33 2 -26 15 4 5 1 9 -4 9 -19 0 -12 19 10 31 17 9 23 8
30 -2 7 -11 9 -11 9 2 0 19 23 31 45 23 8 -4 15 -14 15 -23 0 -10 3 -12 8 -5
4 6 15 14 26 17 15 6 16 10 5 23 -11 14 -10 18 6 30 22 16 35 18 35 5 0 -10
136 15 162 29 25 14 31 12 24 -6 -5 -13 -1 -14 26 -9 29 7 58 26 58 39 0 3
-15 3 -32 -1 -18 -3 -30 -3 -27 1 4 4 32 8 63 10 60 3 79 12 56 26 -8 5 16 11
68 15 84 8 103 24 29 26 -36 1 -38 2 -14 8 l28 6 -31 13 c-37 17 -40 37 -4 28
16 -4 23 -3 20 3 -4 5 -27 13 -51 17 -25 3 -55 14 -68 24 -12 9 -38 25 -57 35
-19 10 -38 23 -42 28 -4 8 -15 7 -34 -2 -19 -8 -30 -9 -38 -1 -13 13 -19 13
-32 0z"/>
<path d="M2705 6835 c-33 -14 -69 -25 -80 -26 -17 -1 -16 -2 5 -9 l25 -8 -22
-7 c-26 -8 -31 -25 -8 -25 8 0 15 -4 15 -10 0 -5 19 -10 43 -10 53 -1 32 -15
-37 -25 -34 -6 -47 -4 -42 3 4 6 13 9 21 5 8 -3 15 0 15 7 0 8 -8 10 -22 6
-13 -3 -27 -6 -31 -6 -5 0 -6 -4 -3 -9 3 -5 -5 -17 -18 -26 -20 -15 -22 -21
-11 -31 10 -11 31 -11 101 -3 49 6 102 12 118 13 15 2 32 9 36 15 4 8 23 12
46 10 26 -2 38 1 37 9 -2 7 8 12 21 12 13 0 29 6 35 14 10 12 7 18 -16 31
l-28 16 35 -6 c19 -3 52 -8 74 -11 31 -6 38 -4 34 7 -2 8 -15 16 -29 17 -13 2
-32 11 -41 19 -12 11 -28 13 -60 8 -30 -4 -39 -3 -28 4 8 5 11 13 7 17 -4 4
-13 2 -19 -4 -17 -17 -31 -15 -24 4 4 12 1 14 -14 9 -11 -4 -20 -2 -20 4 0 18
-52 12 -115 -14z"/>
<path d="M5940 6548 c-16 -35 -25 -64 -19 -66 5 -2 9 -12 9 -22 0 -23 16 -35
23 -18 4 10 7 10 15 0 14 -20 82 -11 96 12 8 14 8 20 -1 23 -7 3 -13 11 -13
19 0 30 -56 114 -75 114 -3 0 -19 -28 -35 -62z"/>
<path d="M2821 6530 c-24 -5 -46 -11 -48 -14 -3 -2 32 -8 76 -12 58 -5 81 -10
81 -20 0 -8 -12 -16 -27 -19 -58 -12 -255 -77 -250 -82 3 -3 -6 -16 -21 -28
-21 -18 -24 -26 -15 -36 9 -9 19 -6 43 15 17 14 39 26 49 26 18 0 41 -38 41
-66 0 -23 71 -91 112 -109 52 -21 93 -19 182 10 42 14 83 25 90 25 18 0 135
37 164 52 26 13 28 41 7 91 -18 44 -47 72 -100 99 -22 11 -42 23 -45 27 -28
34 -247 60 -339 41z"/>
<path d="M5804 6072 c-23 -31 -52 -77 -64 -102 -28 -55 -69 -115 -108 -157
-17 -18 -32 -36 -34 -40 -1 -5 -18 -19 -37 -33 -19 -13 -60 -64 -92 -114 -32
-50 -62 -95 -66 -101 -5 -5 -19 -32 -33 -58 -22 -42 -172 -254 -190 -267 -3
-3 -37 -45 -75 -95 -38 -49 -93 -120 -122 -156 -56 -70 -62 -89 -38 -109 13
-11 24 -4 73 47 75 78 101 110 124 155 11 20 26 42 34 49 8 6 14 18 14 25 0 8
4 14 8 14 4 0 16 15 27 33 10 17 27 41 37 52 10 11 21 30 24 42 4 13 10 23 15
23 5 0 9 7 9 15 0 8 6 15 13 15 8 0 19 11 25 24 6 13 27 46 47 73 39 53 36 49
122 147 41 46 61 76 58 87 -3 9 0 23 7 31 18 19 36 47 53 83 8 17 41 68 74
115 34 47 72 108 86 136 14 28 36 63 50 78 27 30 32 46 13 46 -7 0 -32 -26
-54 -58z"/>
<path d="M4648 5601 c-14 -14 -42 -41 -62 -60 l-36 -34 -64 32 c-53 27 -69 31
-97 24 -27 -7 -35 -15 -37 -37 -2 -16 1 -33 7 -39 6 -6 11 -17 11 -25 0 -8 9
-25 20 -39 13 -17 17 -33 13 -54 -11 -56 -77 -165 -105 -175 -10 -3 -18 -9
-18 -14 0 -4 -13 -16 -29 -27 -64 -40 -251 -216 -251 -236 0 -5 8 -6 18 -2 9
4 43 11 74 15 70 10 118 51 182 153 93 149 218 326 270 382 31 33 58 68 61 78
4 9 12 17 18 17 16 0 60 47 55 59 -1 5 -15 -3 -30 -18z"/>
<path d="M4229 3858 c-46 -34 -97 -76 -114 -94 -87 -94 -146 -161 -161 -182
-28 -40 -10 -45 31 -8 39 36 69 49 138 61 l38 6 -3 -93 -3 -92 -55 -31 c-165
-93 -196 -105 -300 -122 -50 -8 -65 -27 -50 -63 7 -16 9 -34 5 -39 -3 -6 -3
-11 2 -11 14 0 35 17 33 26 -2 13 30 18 42 6 6 -6 0 -26 -16 -55 -13 -26 -26
-52 -28 -58 -2 -6 -33 -15 -68 -18 l-65 -6 78 -15 c42 -8 77 -17 77 -22 0 -4
16 -10 35 -14 19 -3 38 -10 41 -15 3 -5 32 -23 64 -39 33 -16 76 -47 97 -69
24 -24 51 -41 73 -45 77 -14 126 -30 149 -48 13 -10 30 -18 37 -18 8 0 14 -4
14 -9 0 -5 10 -13 23 -17 35 -10 57 -35 57 -64 0 -14 4 -30 8 -35 4 -6 14 -28
21 -50 7 -22 24 -62 36 -90 12 -27 25 -59 29 -70 6 -17 10 -16 36 15 17 19 30
40 30 47 0 6 4 13 9 15 5 2 38 64 74 138 137 287 137 287 137 350 0 51 4 64
28 92 15 18 48 62 71 98 24 36 63 88 86 115 49 59 158 265 153 290 -1 10 -12
23 -23 29 -11 6 -44 28 -73 50 -46 33 -53 42 -49 64 8 42 -8 69 -45 76 -56 11
-228 26 -329 29 -53 1 -102 7 -110 13 -22 16 -92 34 -136 34 -33 0 -54 -10
-124 -62z m167 17 c10 -7 59 -26 107 -41 l89 -28 -69 -17 c-37 -9 -112 -31
-167 -48 -123 -39 -148 -39 -171 -4 -20 30 -25 22 54 83 39 31 110 70 126 70
6 0 20 -7 31 -15z m348 -106 c33 -26 33 -37 1 -45 -64 -16 -91 -104 -38 -125
38 -14 90 -11 108 7 25 26 49 65 52 88 7 41 63 52 63 11 0 -29 -95 -144 -124
-149 -6 -1 -27 -7 -46 -13 -19 -6 -56 -14 -82 -18 -44 -6 -50 -4 -74 22 -38
41 -55 79 -48 108 3 14 10 25 14 25 5 0 20 20 34 43 17 30 35 47 58 54 48 16
53 15 82 -8z m-204 -51 c-1 -20 -27 -50 -42 -47 -7 1 -26 -4 -43 -11 -16 -7
-55 -20 -86 -30 -53 -16 -58 -16 -92 0 -20 10 -39 15 -43 11 -4 -3 -5 1 -2 9
3 9 24 18 54 23 27 4 58 12 69 17 30 15 126 39 158 39 15 1 27 -4 27 -11z
m526 -118 c12 0 14 -7 8 -37 -4 -21 -12 -42 -19 -48 -7 -5 -22 -27 -34 -47
-13 -21 -30 -38 -40 -38 -16 0 -17 13 -17 129 l1 128 43 -43 c23 -24 49 -44
58 -44z m-511 -73 c28 -49 33 -52 83 -62 l54 -10 -34 -40 c-64 -76 -153 -162
-185 -179 -18 -9 -33 -20 -33 -24 0 -7 -100 -62 -113 -62 -11 0 5 75 30 140
41 109 144 291 163 290 3 -1 19 -24 35 -53z m-395 -174 c0 -7 10 -13 23 -13
29 0 53 -19 60 -47 3 -16 1 -20 -9 -16 -8 3 -37 -5 -65 -17 -28 -12 -69 -25
-92 -28 l-41 -7 2 -105 c2 -78 -1 -110 -12 -123 -14 -18 -16 -18 -55 2 -22 12
-49 21 -61 21 -11 0 -20 4 -20 10 0 5 -18 15 -40 21 -22 7 -40 18 -40 24 0 7
25 54 55 104 30 51 55 96 55 100 0 14 83 51 112 51 15 0 33 6 40 13 25 25 88
32 88 10z m694 -119 c-49 -75 -93 -124 -110 -124 -8 0 -14 -4 -14 -10 0 -5 -9
-10 -20 -10 -11 0 -20 -5 -20 -12 0 -6 -3 -8 -6 -5 -8 7 35 127 45 127 4 0 20
12 37 28 16 15 50 44 74 64 41 34 45 35 48 17 2 -11 -13 -45 -34 -75z m-590
-61 c-3 -32 -7 -59 -8 -60 -2 -3 -81 -96 -111 -130 -22 -25 -35 -32 -49 -27
-16 6 -17 14 -12 58 4 28 9 77 13 109 3 31 11 61 17 65 15 9 116 39 139 41 17
1 18 -5 11 -56z m208 -15 c-7 -7 -12 -29 -12 -50 0 -34 -6 -42 -57 -83 -32
-25 -64 -45 -71 -45 -7 0 -29 -10 -50 -23 -48 -29 -89 -47 -109 -47 -15 0 -14
3 3 20 41 42 52 56 77 100 19 34 41 53 82 75 31 17 71 38 88 47 39 21 67 24
49 6z m88 -174 c0 -8 -87 -94 -96 -94 -3 0 -17 -11 -30 -25 -34 -37 -65 -40
-117 -13 l-45 24 55 35 c99 61 108 65 142 67 19 2 37 5 40 7 6 7 51 6 51 -1z"/>
<path d="M6140 3683 c-36 -6 -70 -24 -70 -38 0 -7 -13 -31 -30 -53 -16 -23
-30 -50 -30 -59 0 -15 -2 -16 -10 -3 -8 13 -10 12 -10 -3 0 -24 -39 -79 -50
-72 -5 3 3 26 17 52 15 25 32 71 39 102 16 68 17 71 4 71 -5 0 -10 -9 -10 -21
0 -22 -47 -146 -62 -164 -5 -5 -19 -24 -31 -41 -140 -197 -281 -314 -465 -384
-42 -17 -82 -30 -88 -30 -7 0 -15 -7 -18 -16 -4 -10 -14 -14 -26 -11 -11 3
-20 2 -20 -2 0 -4 -18 -13 -40 -20 -22 -6 -40 -16 -40 -21 0 -6 -6 -10 -14
-10 -8 0 -33 -12 -55 -27 -36 -24 -45 -34 -43 -53 0 -3 -7 -7 -16 -8 -47 -5
-64 -10 -80 -23 -10 -9 -23 -14 -30 -11 -8 2 -10 -3 -6 -15 5 -17 5 -17 -6 0
-6 9 -15 15 -19 13 -10 -7 54 -199 68 -204 15 -5 7 32 -25 111 -12 31 -19 57
-14 57 4 0 18 -31 31 -70 26 -79 35 -97 45 -88 4 4 -5 38 -19 75 -14 37 -29
77 -33 88 -4 13 -3 16 3 10 8 -9 39 -84 57 -137 6 -18 26 -25 26 -9 0 5 9 11
20 14 19 5 18 8 -11 64 -17 32 -36 64 -42 71 -5 7 -7 15 -3 19 8 8 5 11 45
-69 19 -38 38 -68 44 -68 21 0 77 42 70 53 -3 7 4 3 17 -8 l23 -20 -8 25 c-6
20 -5 23 6 13 18 -18 29 -16 29 5 0 14 2 14 9 3 8 -13 14 -13 38 -1 15 7 37
15 48 17 20 3 20 3 1 -12 -11 -8 -28 -15 -37 -15 -10 0 -20 -4 -23 -9 -3 -4
-26 -14 -51 -21 -25 -7 -45 -17 -45 -21 0 -5 -7 -9 -15 -9 -14 0 -54 -18 -65
-30 -3 -3 -16 -11 -30 -18 -14 -7 -17 -10 -7 -8 9 3 17 2 17 -3 0 -14 -39 -20
-44 -7 -2 6 -5 3 -5 -7 -1 -10 -6 -15 -11 -12 -6 3 -13 -1 -17 -10 -14 -37
-73 -81 -73 -55 0 5 -6 7 -14 4 -11 -4 -17 5 -21 33 -4 21 -16 67 -26 102 -10
35 -19 71 -18 80 1 24 15 -14 34 -95 25 -103 23 -100 45 -76 26 27 25 42 -5
127 -14 39 -27 75 -28 82 -2 7 -7 16 -11 20 -10 10 0 -46 21 -110 8 -27 13
-51 10 -53 -3 -3 -8 3 -11 13 -2 10 -12 44 -21 76 -11 36 -22 57 -31 57 -8 0
-12 -4 -9 -10 3 -6 -1 -7 -9 -4 -20 8 -20 -5 -1 -53 15 -40 37 -154 31 -160
-2 -2 -13 35 -24 83 -23 97 -49 140 -38 64 l6 -45 -15 30 c-15 29 -15 28 -11
-35 4 -60 4 -62 -5 -22 -6 23 -15 42 -21 42 -10 0 -8 -20 8 -100 5 -20 3 -22
-5 -10 -6 8 -11 27 -11 42 0 43 -20 44 -21 1 0 -33 -1 -35 -9 -15 -15 36 -23
25 -18 -23 3 -24 2 -42 -3 -39 -5 3 -9 17 -9 32 0 24 -6 21 -70 -47 -38 -41
-70 -80 -70 -88 0 -7 -7 -13 -15 -13 -8 0 -15 -9 -15 -20 0 -11 -3 -20 -7 -20
-8 0 -27 -30 -70 -110 -14 -25 -33 -54 -43 -65 -11 -11 -26 -36 -34 -55 -8
-19 -15 -31 -16 -26 0 5 -18 -25 -39 -67 -39 -74 -91 -216 -91 -248 0 -9 -7
-39 -15 -65 -8 -27 -28 -95 -45 -152 -23 -75 -30 -115 -26 -145 4 -30 3 -35
-3 -17 -6 19 -10 21 -14 10 -14 -34 -36 -133 -32 -141 7 -11 -23 -4 -71 16
-21 9 -43 18 -49 19 -5 2 -37 16 -70 31 -33 16 -63 28 -67 27 -5 -1 -8 2 -8 7
0 5 -13 12 -29 16 -24 5 -30 12 -33 38 -3 27 -8 32 -37 38 -18 4 -43 12 -55
18 -29 14 -254 87 -346 112 -108 29 -422 99 -441 99 -10 0 -24 -16 -34 -42
-10 -24 -20 -37 -22 -30 -7 19 -23 14 -23 -8 0 -11 -4 -20 -9 -20 -7 0 -16
-20 -20 -45 0 -3 -7 -20 -14 -38 -8 -17 -22 -68 -31 -112 -43 -195 -71 -306
-74 -295 -5 13 26 155 39 180 4 9 8 38 10 65 1 28 6 55 10 60 4 6 17 46 29 90
12 44 26 84 31 89 5 6 9 19 8 30 0 15 -2 17 -6 6 -3 -8 -11 -22 -19 -30 -14
-17 -68 -200 -79 -268 -10 -64 -66 -273 -61 -227 3 22 12 69 21 105 8 36 22
105 31 154 8 49 19 97 24 105 4 9 16 44 24 78 9 34 19 70 22 80 3 10 -5 0 -17
-22 -26 -47 -33 -71 -59 -200 -11 -55 -24 -116 -29 -135 -5 -19 -17 -66 -27
-105 -9 -38 -21 -74 -25 -79 -13 -15 -11 5 11 91 35 142 50 209 50 227 0 9 6
38 14 64 8 26 21 71 30 101 21 70 20 86 -3 36 -10 -22 -30 -94 -45 -160 -15
-66 -36 -156 -48 -200 -11 -44 -27 -107 -34 -140 -8 -33 -19 -68 -24 -77 -6
-10 -10 -27 -10 -38 0 -11 -4 -28 -10 -38 -10 -18 -61 -183 -88 -287 -8 -33
-18 -62 -21 -65 -7 -6 -100 -300 -126 -400 -10 -36 -21 -74 -26 -85 -13 -31
-49 -138 -49 -147 0 -4 3 -8 8 -8 9 0 42 90 42 114 0 9 4 16 9 16 4 0 14 20
21 45 7 25 15 43 17 41 5 -5 -11 -63 -27 -101 -14 -33 -30 -87 -30 -101 0 -25
15 -14 27 19 30 87 45 123 54 132 6 6 -2 -21 -16 -60 -39 -101 -40 -105 -21
-105 9 0 16 6 16 14 0 8 9 33 20 57 12 26 20 36 19 24 0 -11 -6 -31 -14 -45
-8 -14 -14 -31 -15 -37 0 -10 762 -13 3779 -13 l3779 0 7 37 c20 96 28 408 10
423 -6 5 -9 39 -8 79 1 39 -2 71 -7 71 -5 0 -9 12 -9 28 1 15 -5 61 -11 102
-7 41 -12 92 -11 113 1 24 -2 36 -9 32 -5 -3 -10 1 -10 10 0 8 -6 25 -12 36
-10 17 -10 23 -1 26 10 4 9 11 -2 34 -9 16 -19 29 -24 29 -7 0 -18 52 -25 125
-1 11 -7 29 -13 39 -6 10 -8 27 -6 37 3 11 0 19 -6 19 -15 0 -14 27 2 33 6 3
2 6 -10 6 -16 1 -23 7 -23 21 0 11 -4 20 -10 20 -5 0 -10 11 -10 24 0 13 -11
34 -25 47 -13 13 -25 30 -25 37 0 6 -5 12 -10 12 -6 0 -8 15 -4 40 4 27 3 40
-5 40 -6 0 -11 -7 -11 -15 0 -26 -24 -16 -44 18 -13 23 -20 28 -24 17 -3 -8
-11 -21 -19 -28 -11 -11 -13 -9 -13 16 0 17 5 32 11 34 5 2 2 12 -9 23 -15 16
-16 24 -8 38 8 12 7 22 -2 37 -11 18 -10 20 10 20 17 0 19 3 10 12 -7 7 -12
25 -12 40 0 15 -5 28 -11 28 -5 0 -8 4 -4 9 3 5 1 13 -5 16 -8 5 -7 11 1 21 9
11 6 16 -15 23 -15 6 -28 21 -32 37 -5 18 -9 22 -15 13 -5 -8 -14 9 -24 47
-21 70 -35 89 -71 92 -34 3 -34 3 -38 38 -2 16 -4 32 -5 37 0 4 -8 7 -16 7 -9
0 -20 11 -25 25 -5 13 -20 27 -34 31 -18 4 -23 10 -18 27 3 12 1 19 -3 14 -10
-9 -45 21 -45 40 0 7 -9 13 -20 13 -11 0 -20 5 -20 10 0 6 -9 10 -19 10 -10 0
-22 7 -25 16 -4 10 -14 14 -26 11 -11 -3 -23 0 -28 6 -14 23 -71 57 -85 51
-19 -7 -33 14 -18 29 18 18 12 28 -14 21 -22 -6 -25 -3 -31 36 -6 37 -10 41
-30 37 -15 -3 -21 0 -17 9 5 14 -35 72 -50 73 -4 1 -17 9 -28 20 -16 15 -18
23 -10 44 13 34 -5 47 -25 18 -8 -12 -21 -21 -28 -21 -8 0 -17 -8 -21 -17 -7
-17 -8 -16 -15 2 -12 29 -11 43 1 25 9 -13 10 -13 5 0 -3 8 -9 23 -12 32 -12
34 -110 61 -224 63 -58 1 -116 2 -130 4 -23 1 -23 3 -7 12 10 6 25 8 34 5 8
-3 19 -3 25 0 16 10 -13 24 -49 24 -42 0 -126 22 -135 35 -10 13 -10 17 2 35
9 13 12 13 24 -3 13 -16 14 -16 20 -1 9 22 -4 34 -46 43 -31 7 -35 6 -31 -9 9
-34 -45 -34 -97 0 -8 5 -36 19 -62 31 -27 12 -48 24 -48 28 0 3 -12 7 -26 7
-14 1 -33 9 -43 18 -10 9 -30 16 -44 16 -15 0 -27 5 -27 10 0 6 -12 10 -27 10
-14 0 -34 6 -42 13 -9 7 -63 26 -121 41 -127 34 -166 51 -180 76 -6 11 -19 20
-30 20 -14 0 -18 5 -13 17 4 10 2 14 -5 9 -6 -3 -17 2 -24 12 -7 9 -44 32 -83
50 -106 50 -142 70 -204 117 -82 62 -129 89 -211 124 -91 39 -111 37 -73 -5
36 -40 77 -113 68 -122 -4 -4 -10 0 -13 8 -3 8 -20 30 -39 49 -18 18 -33 36
-33 40 0 11 -105 118 -127 130 -12 6 -31 11 -42 11 -12 0 -21 5 -21 10 0 7 -7
7 -21 0 -16 -9 -24 -8 -37 3 -10 9 -30 13 -49 11 -25 -3 -33 0 -33 12 0 10 -6
14 -17 10 -37 -11 -90 -8 -138 8 -78 27 -104 40 -99 48 3 4 4 7 2 7 -2 -1 -14
-4 -28 -6z m-940 -1113 c0 -5 -7 -10 -15 -10 -9 0 -15 -9 -16 -22 0 -22 -1
-22 -9 -3 -7 17 -9 17 -9 3 -1 -11 -6 -15 -16 -12 -11 5 -15 -1 -16 -22 -1
-16 -3 -22 -6 -13 -3 11 -11 15 -24 12 -16 -5 -18 -8 -7 -14 10 -7 10 -9 1 -9
-7 0 -13 -8 -13 -17 0 -10 -4 -14 -8 -8 -17 23 -32 14 -32 -20 0 -21 -5 -34
-12 -32 -6 1 -17 -8 -23 -20 -7 -13 -14 -21 -17 -18 -3 3 -17 -6 -32 -20 -15
-14 -32 -25 -38 -25 -7 0 -9 -26 -6 -77 3 -43 3 -63 1 -45 -2 18 -8 30 -14 27
-5 -4 -6 -18 -3 -33 4 -21 3 -24 -5 -12 -14 19 -14 80 -1 80 6 0 9 15 9 33
l-1 32 -8 -30 -8 -30 -2 30 c-2 25 -3 26 -7 8 -2 -13 -9 -23 -14 -23 -5 0 -9
-28 -9 -62 0 -95 -11 -61 -15 46 -2 53 -7 96 -12 95 -4 0 -7 -12 -6 -27 0 -15
-1 -21 -4 -14 -2 6 -16 12 -30 12 l-26 0 8 -82 c10 -117 12 -189 3 -175 -4 7
-8 20 -8 30 0 10 -4 16 -9 13 -5 -4 -7 39 -3 99 4 78 2 105 -7 105 -7 0 -10 4
-7 9 3 4 -20 2 -51 -5 -65 -15 -79 -12 -31 6 61 22 113 43 167 67 30 13 67 27
82 30 16 3 29 9 29 14 0 5 28 22 63 39 65 33 86 43 115 60 62 37 102 48 102
30z m-1942 -1079 c67 -46 146 -79 197 -83 47 -3 57 -18 11 -18 -27 0 -39 -6
-56 -30 -12 -16 -18 -34 -15 -40 3 -6 -4 -10 -17 -10 -21 -1 -20 -2 7 -15 l30
-14 -40 6 c-22 3 -42 7 -44 9 -2 1 18 24 43 50 25 25 46 47 46 49 0 1 -9 5
-21 8 -24 6 -72 -39 -64 -60 3 -8 -4 -13 -18 -13 -18 0 -19 -2 -7 -10 12 -7 8
-10 -15 -10 l-29 0 47 48 c43 44 62 72 37 57 -5 -3 -10 -1 -10 4 0 6 -5 11
-11 11 -13 0 -72 -61 -65 -68 3 -2 16 9 30 24 13 16 28 25 33 21 8 -9 -59 -77
-77 -77 -5 0 -10 6 -10 14 0 21 -20 30 -33 17 -16 -16 -37 -14 -31 4 5 12 -2
15 -32 14 -51 -1 -87 -12 -92 -27 -6 -18 54 -15 83 4 29 19 33 9 8 -18 -22
-24 -101 -25 -110 -2 -11 28 12 48 68 59 58 12 88 26 113 51 27 27 20 44 -20
44 -44 0 -72 -15 -84 -43 -9 -22 -9 -22 -9 -1 -1 27 27 52 67 60 17 4 29 10
26 15 -10 17 6 9 64 -30z"/>
<path d="M1967 3052 c-22 -10 -40 -26 -43 -38 -4 -16 -16 -23 -45 -28 -30 -5
-39 -11 -39 -26 0 -13 -7 -20 -20 -20 -21 0 -40 -27 -33 -47 3 -8 -4 -13 -15
-13 -16 0 -21 -9 -26 -45 -4 -24 -12 -47 -17 -51 -5 -3 -7 -14 -4 -24 3 -10 1
-21 -5 -25 -6 -3 -8 -11 -4 -16 7 -12 -15 -79 -27 -79 -5 0 -9 -18 -9 -40 l0
-40 -50 0 -50 0 0 39 0 38 -49 5 c-27 3 -63 3 -79 0 -27 -4 -30 -6 -19 -23 17
-27 -2 -53 -42 -57 -29 -3 -31 -6 -31 -43 0 -21 5 -39 10 -39 6 0 10 -18 10
-40 0 -22 5 -40 10 -40 6 0 10 18 10 40 0 22 4 40 9 40 15 0 17 -88 4 -107 -7
-9 -13 -25 -13 -35 0 -10 -4 -18 -10 -18 -13 0 -13 -37 -1 -45 5 -3 12 -1 16
5 15 24 21 7 12 -30 -9 -33 -8 -42 6 -58 23 -25 21 -31 -5 -26 -13 2 -17 2
-10 -2 7 -3 12 -24 12 -50 0 -24 5 -44 10 -44 6 0 10 -7 10 -15 0 -8 -7 -15
-15 -15 -8 0 -15 -7 -15 -15 0 -8 8 -15 18 -15 10 0 13 -3 6 -8 -13 -9 -26
-82 -15 -82 5 0 11 -9 14 -21 3 -12 10 -18 16 -14 12 7 14 -5 5 -29 -3 -9 -16
-16 -28 -16 -30 0 -31 -44 0 -77 13 -14 24 -33 24 -42 0 -10 12 -42 27 -72 19
-38 27 -69 27 -106 0 -48 1 -50 11 -25 10 22 12 24 18 9 4 -10 3 -16 -1 -13
-4 2 -8 -30 -8 -72 0 -53 2 -67 7 -44 11 56 22 50 15 -8 -5 -40 -4 -51 4 -40
8 11 9 4 5 -30 l-5 -45 15 40 15 40 -5 -50 -5 -50 15 30 15 30 -6 -40 c-3 -22
-8 -53 -11 -70 -4 -23 -2 -27 6 -15 6 8 11 28 11 44 0 16 3 27 6 23 10 -10 -6
-98 -17 -92 -5 4 -9 -1 -9 -9 0 -29 27 -17 38 17 5 18 10 24 11 14 1 -10 -4
-27 -9 -38 -8 -15 -7 -21 4 -25 16 -6 30 -53 28 -99 -1 -28 0 -27 13 10 l14
40 -4 -55 c-3 -42 -2 -49 5 -30 7 18 8 6 5 -45 l-4 -70 13 55 14 55 1 -47 c0
-25 4 -55 7 -65 5 -15 4 -15 -5 -3 -9 13 -11 11 -11 -7 0 -12 5 -23 12 -25 7
-3 9 -12 5 -22 -4 -10 -12 -14 -19 -10 -10 6 -10 5 -1 -7 8 -9 9 -26 3 -49 -7
-32 -8 -32 -9 -7 -1 15 -5 27 -11 27 -5 0 -10 7 -10 15 0 8 -4 15 -8 15 -5 0
-6 -14 -4 -31 3 -22 7 -27 13 -18 6 10 9 8 9 -8 0 -12 5 -25 10 -28 7 -4 9
-26 6 -53 -4 -37 -3 -40 3 -17 l9 30 1 -35 c1 -27 4 -31 11 -20 5 8 10 11 11
5 0 -5 7 3 14 20 l13 30 7 -59 c4 -32 5 -81 2 -109 -3 -32 -2 -44 3 -31 4 11
11 52 16 90 6 57 9 64 15 41 4 -15 3 -42 -2 -60 -12 -41 -11 -60 1 -52 6 4 10
-9 11 -32 1 -40 3 -38 14 11 5 23 8 27 16 15 5 -7 9 -21 9 -29 0 -13 -1 -13
-10 0 -7 11 -10 7 -10 -18 0 -19 -4 -31 -10 -27 -11 7 -24 -38 -17 -57 3 -7 6
0 6 15 1 16 5 26 11 22 6 -3 14 4 19 17 9 20 10 18 11 -17 l2 -40 9 33 c13 46
17 40 12 -21 -3 -35 -1 -48 5 -38 7 9 8 -1 5 -33 -6 -50 12 -67 20 -18 3 19 5
13 6 -18 2 -25 5 -38 8 -30 2 8 8 24 12 35 5 11 13 32 19 46 6 14 22 75 37
135 15 60 39 141 55 179 78 191 84 212 116 395 9 52 36 151 60 220 49 144 52
156 69 310 7 63 16 125 20 137 9 27 57 43 133 43 34 0 52 4 53 13 4 57 24 123
66 212 14 30 23 70 24 100 0 28 3 44 6 38 10 -27 21 -10 42 70 20 77 21 86 7
152 -9 47 -14 59 -15 38 -1 -18 -5 -33 -11 -33 -6 0 -10 33 -10 78 0 83 -12
119 -30 92 -7 -11 -10 -6 -10 23 0 41 -16 49 -29 15 -8 -20 -10 -21 -16 -5
-12 29 -21 19 -24 -25 -3 -56 -11 -62 -11 -9 0 49 -24 54 -26 5 -3 -67 -4 -75
-14 -69 -5 3 -10 18 -10 33 0 40 -21 12 -23 -31 -2 -41 -13 -39 -22 5 l-7 31
-25 -48 c-15 -31 -22 -57 -18 -72 3 -13 1 -23 -5 -23 -5 0 -10 -9 -10 -20 0
-11 7 -20 15 -20 17 0 20 -25 5 -35 -5 -3 -10 -18 -11 -33 l-1 -27 -7 25 c-9
32 -21 14 -26 -37 -4 -41 9 -74 27 -70 6 1 14 -11 19 -27 9 -31 3 -50 -12 -41
-5 4 -9 1 -9 -4 0 -6 -18 -11 -40 -11 -22 0 -40 -4 -40 -10 0 -5 23 -10 50
-10 47 0 63 -11 40 -25 -5 -3 -10 -14 -10 -25 0 -18 -57 -90 -71 -90 -4 0 -9
11 -11 26 -3 23 -5 24 -22 11 -19 -14 -19 -16 12 -47 33 -32 40 -54 22 -65 -6
-3 -8 -16 -6 -28 1 -12 1 -16 -1 -9 -7 20 -31 14 -62 -18 -27 -29 -29 -30 -34
-9 -4 15 -11 19 -25 15 -13 -4 -22 -1 -26 9 -4 12 2 15 29 15 38 0 47 15 15
25 -11 3 -20 10 -20 15 0 5 9 12 20 15 23 7 27 25 5 25 -11 0 -15 11 -15 40 0
22 -4 40 -10 40 -5 0 -10 18 -10 40 0 22 -4 40 -10 40 -5 0 -10 18 -10 40 0
29 4 40 15 40 20 0 19 19 0 26 -10 4 -13 13 -9 26 4 12 1 24 -7 29 -11 6 -10
12 5 28 13 14 20 46 26 113 5 59 16 111 30 142 14 30 20 61 18 82 -2 19 0 34
5 34 4 0 5 5 2 10 -4 6 -1 18 6 26 10 13 10 17 -1 24 -10 6 -13 24 -11 54 2
36 -1 46 -13 46 -19 0 -20 4 -4 29 9 14 8 29 -2 65 -12 43 -23 56 -33 38 -3
-4 -30 -8 -61 -10 -45 -3 -59 1 -75 17 -25 25 -30 101 -7 101 8 0 17 6 19 13
4 10 6 10 6 0 1 -16 41 -17 41 -2 0 6 -9 13 -20 16 -11 3 -20 12 -20 20 0 10
6 12 21 8 22 -7 59 18 59 42 0 18 -65 15 -113 -5z"/>
<path d="M740 2650 c-10 -6 -11 -10 -2 -10 7 0 12 -15 12 -40 0 -36 3 -40 25
-40 23 0 25 -4 25 -40 0 -22 5 -40 10 -40 6 0 10 -33 10 -80 0 -64 3 -80 15
-80 11 0 15 12 17 43 l1 42 4 -39 c3 -29 -1 -44 -18 -62 l-22 -24 31 -11 c28
-10 32 -15 32 -49 0 -32 3 -37 18 -33 16 4 18 -3 20 -49 6 -136 7 -145 20
-141 9 4 12 -11 13 -53 0 -33 3 -53 6 -46 7 19 27 15 51 -11 17 -18 20 -31 17
-62 -3 -25 -2 -32 3 -17 7 22 7 22 19 3 10 -15 8 -22 -8 -39 -20 -23 -25 -37
-9 -27 6 3 10 -3 10 -14 0 -11 4 -22 8 -25 14 -8 14 -117 1 -132 -9 -11 -9
-17 0 -28 7 -9 13 -55 14 -115 1 -55 5 -93 8 -83 5 12 8 7 15 -18 l8 -35 7 35
6 35 2 -40 c2 -31 4 -36 10 -20 6 13 8 -2 8 -42 -1 -50 4 -69 22 -94 27 -37
18 -55 -9 -19 l-20 25 1 -25 c0 -14 6 -40 13 -59 10 -29 14 -32 20 -16 4 11 2
22 -6 26 -7 4 -9 11 -5 15 10 11 47 -36 47 -60 0 -18 -2 -19 -11 -6 -7 11 -8
6 -3 -20 9 -46 15 -55 26 -39 7 10 8 7 5 -9 -5 -20 -2 -23 14 -19 16 4 18 3 8
-9 -6 -7 -15 -11 -20 -8 -5 3 -9 0 -9 -5 0 -6 9 -11 20 -11 11 0 20 -4 20 -10
0 -5 -7 -10 -15 -10 -23 0 -18 -17 6 -23 19 -5 21 -11 15 -49 -4 -26 -3 -38 3
-29 5 8 11 9 15 3 3 -5 -3 -21 -14 -35 -11 -14 -20 -28 -20 -32 0 -4 9 3 19
16 22 28 33 21 35 -20 1 -23 4 -27 14 -19 9 8 16 8 25 -1 9 -10 8 -11 -5 -6
-14 6 -18 2 -18 -15 0 -30 -19 -62 -32 -54 -6 4 -8 3 -5 -4 8 -12 47 -4 47 11
0 6 3 8 6 5 3 -3 0 -15 -7 -26 -11 -17 -10 -27 7 -59 10 -21 22 -39 27 -41 4
-2 7 -9 7 -15 -1 -16 -50 44 -50 61 0 6 -4 12 -10 12 -5 0 -10 4 -10 10 0 5
-15 31 -34 57 -18 27 -48 77 -66 113 -18 36 -45 88 -60 115 -15 28 -51 93 -79
145 -65 118 -99 178 -119 210 -9 14 -18 34 -19 45 -2 11 -8 24 -13 29 -6 6
-10 18 -10 28 0 10 -4 18 -9 18 -5 0 -11 8 -14 18 -8 23 -76 145 -89 157 -7 7
-8 2 -3 -14 6 -21 5 -23 -14 -18 -11 3 -23 1 -26 -4 -3 -4 -12 -6 -20 -2 -9 3
-22 0 -31 -7 -22 -19 -40 1 -23 27 9 15 9 25 1 39 -10 17 -11 16 -12 -8 0 -24
-4 -28 -28 -28 -28 0 -29 2 -62 88 -8 20 -19 32 -31 32 -10 0 -23 8 -28 18 -9
15 -10 14 -11 -8 l-1 -25 -13 25 c-8 14 -12 28 -10 32 3 5 -1 8 -9 8 -14 0
-37 40 -37 66 0 9 -5 12 -12 8 -6 -4 -17 1 -24 10 -14 20 -54 13 -54 -9 0 -7
-3 -21 -6 -30 -4 -9 -3 -15 2 -14 20 3 24 -2 14 -21 -9 -16 -8 -20 5 -20 11 0
14 -6 10 -23 -4 -15 -1 -28 9 -36 11 -9 13 -19 5 -37 -11 -31 -11 -34 0 -34 5
0 12 10 16 23 6 20 8 18 17 -15 5 -21 14 -38 19 -38 5 0 9 -6 9 -14 0 -7 7
-19 15 -26 8 -7 15 -24 16 -39 0 -14 3 -20 6 -13 9 22 23 13 24 -15 l1 -28 7
30 c5 25 8 27 14 12 4 -10 7 -29 7 -41 0 -26 17 -46 34 -40 8 3 11 -6 8 -31
-4 -32 -2 -35 22 -35 17 0 26 -5 26 -16 0 -10 6 -14 15 -10 12 4 14 -3 10 -42
-2 -26 -2 -39 1 -29 8 24 24 21 24 -5 0 -19 2 -20 10 -8 7 11 10 3 10 -28 0
-27 4 -41 10 -37 6 4 9 9 6 13 -2 4 0 16 5 27 5 12 7 -9 4 -55 l-4 -75 13 60
14 60 1 -50 c1 -27 8 -79 15 -115 16 -76 19 -62 7 26 -5 34 -6 76 -2 95 6 28
9 17 17 -61 l9 -95 5 80 c6 73 6 75 8 23 1 -32 7 -58 12 -58 6 0 10 7 10 16 0
8 5 12 10 9 6 -3 10 -30 10 -60 0 -30 5 -57 10 -60 6 -3 10 -21 10 -40 0 -19
5 -37 12 -41 8 -5 9 0 4 17 -3 13 -8 51 -11 84 -4 51 -2 46 14 -35 11 -52 24
-120 29 -150 10 -52 10 -51 6 30 l-3 85 13 -70 c8 -38 19 -86 24 -105 9 -30
10 -25 7 35 l-4 70 13 -65 c11 -54 23 -69 17 -21 -2 7 2 10 8 6 6 -3 11 -27
10 -53 -1 -39 -2 -43 -9 -22 -7 21 -8 18 -7 -17 0 -23 -2 -46 -6 -49 -4 -4 -7
4 -7 17 0 17 -3 20 -9 10 -5 -7 -6 -22 -4 -32 3 -10 1 -19 -4 -19 -18 0 -22
12 -12 31 5 11 6 19 1 19 -6 0 -12 -10 -16 -22 -5 -18 -8 -20 -15 -9 -12 18
-41 7 -41 -16 0 -13 -3 -14 -12 -5 -8 8 -15 9 -25 1 -10 -9 -13 -7 -13 10 0
13 6 21 16 21 14 0 14 3 4 15 -17 20 -20 16 -30 -42 l-8 -48 -1 40 c-1 22 -6
47 -12 55 -9 13 -10 12 -5 -2 3 -12 1 -15 -9 -12 -9 4 -15 -4 -18 -28 -3 -29
-4 -27 -6 12 -2 25 -5 39 -8 33 -9 -23 -21 -14 -33 22 -13 40 -34 38 -24 -2 5
-18 3 -24 -5 -19 -6 4 -11 16 -11 27 0 17 -11 24 -32 20 -5 0 -8 3 -8 9 0 6
-5 9 -12 8 -7 -2 -15 12 -19 32 -6 32 -7 30 -9 -20 l-3 -55 -7 45 c-4 25 -8
34 -8 21 -4 -49 -14 -10 -14 51 0 60 -1 62 -13 33 -11 -24 -14 -26 -15 -10 -1
16 -4 14 -15 -10 -8 -16 -15 -23 -16 -15 -1 8 -5 -1 -9 -20 -7 -32 -8 -31 -10
20 -2 44 -4 50 -10 30 -7 -21 -8 -18 -11 20 -1 32 -3 37 -6 18 -2 -16 -11 -28
-19 -28 -9 0 -14 -12 -16 -37 l-1 -38 -7 45 c-4 25 -8 35 -8 23 -2 -27 -19
-30 -25 -6 -3 10 -5 3 -6 -14 0 -19 4 -33 10 -33 8 0 10 -21 5 -71 -5 -50 -4
-69 3 -64 6 3 9 10 7 14 -3 4 -1 13 5 21 6 11 9 5 9 -20 l1 -35 14 25 c14 24
14 23 16 -30 2 -44 3 -48 6 -17 5 42 22 41 24 -1 1 -24 3 -23 9 8 7 31 8 32 9
8 1 -20 5 -26 16 -22 11 4 15 -1 15 -17 0 -13 5 -31 10 -39 8 -12 10 -12 11 5
0 12 6 3 14 -20 13 -39 13 -39 15 -10 1 26 3 27 10 10 5 -11 10 -36 11 -55 2
-31 2 -32 6 -8 7 44 22 32 26 -20 l3 -47 2 48 c2 59 21 54 23 -6 1 -39 2 -40
8 -12 l7 30 7 -38 c8 -37 27 -52 27 -19 1 39 20 -14 21 -58 0 -25 5 -56 10
-70 5 -16 6 0 2 44 -7 82 12 86 23 4 5 -39 9 -46 16 -33 6 9 7 28 4 43 -5 20
-4 23 4 12 5 -8 10 -34 10 -58 0 -44 19 -52 21 -9 1 20 2 20 9 -3 12 -38 11
-98 -1 -102 -8 -3 -7 -13 5 -33 l17 -30 -6 32 c-8 42 1 42 19 1 8 -18 15 -26
15 -17 1 8 -6 24 -14 35 -16 21 -20 104 -5 104 6 0 10 -17 10 -39 0 -21 7 -54
15 -72 14 -34 14 -34 15 -6 0 15 -3 27 -7 27 -10 0 -14 60 -6 80 6 14 14 -19
29 -122 4 -21 10 -38 15 -38 5 0 6 13 3 29 -4 16 -1 32 5 35 7 5 11 -2 11 -18
0 -25 20 -49 20 -24 1 8 5 7 14 -5 13 -17 33 -18 308 -13 161 3 311 6 333 7
22 1 80 -2 128 -6 80 -7 89 -6 102 11 8 10 12 27 9 38 -4 11 -2 16 4 12 17
-10 24 12 10 34 -7 11 -22 23 -33 26 -29 10 -35 25 -19 50 12 18 12 23 2 27
-10 4 -8 10 6 21 19 15 19 16 -7 16 -19 0 -25 4 -21 15 4 9 0 15 -10 15 -19 0
-20 5 -6 31 9 15 7 19 -7 19 -12 0 -14 3 -6 11 8 8 4 18 -13 36 -18 20 -21 29
-13 39 9 11 7 15 -6 20 -16 6 -15 9 6 25 l24 19 -29 0 c-16 0 -26 3 -23 7 4 3
2 13 -5 20 -9 11 -9 17 3 24 14 8 12 10 -13 13 -19 2 -20 24 -1 29 15 4 15 5
1 6 -11 1 -15 7 -11 21 3 12 0 20 -7 20 -9 0 -8 6 3 18 10 10 17 25 16 33 0 8
-4 6 -9 -6 l-9 -20 0 20 c-1 17 -3 17 -11 5 -8 -13 -10 -12 -10 3 0 9 -4 17
-10 17 -5 0 -10 7 -10 16 0 8 -11 35 -25 58 -31 53 -65 151 -65 185 1 25 1 26
16 6 15 -19 16 -15 10 50 -9 102 -16 146 -23 159 -4 6 -8 17 -10 26 -20 118
-35 164 -65 191 -9 8 -24 37 -33 64 -13 38 -14 49 -4 56 10 6 7 26 -15 91 -16
46 -33 89 -39 97 -6 7 -11 44 -11 81 0 38 -4 68 -9 67 -5 -1 -20 50 -32 113
-67 342 -78 391 -93 385 -8 -3 -16 3 -19 15 -3 11 -9 20 -14 20 -5 0 -9 9 -9
20 0 23 -10 26 -29 8 -10 -11 -11 -8 -6 13 5 21 1 31 -19 47 -15 11 -31 35
-38 52 -9 26 -15 31 -35 27 -16 -3 -28 2 -38 17 -13 18 -18 19 -35 8 -17 -10
-20 -10 -20 3 0 11 -11 15 -42 15 -34 0 -40 -3 -28 -11 12 -9 12 -10 -3 -5
-10 3 -33 6 -50 6 -28 0 -29 1 -12 13 19 15 13 37 -11 37 -8 0 -14 7 -14 15 0
8 -9 19 -19 25 -24 12 -22 12 -41 0z"/>
<path d="M2552 1203 c-11 -49 -44 -166 -55 -193 -7 -18 -39 -133 -39 -140 0
-3 -4 -12 -9 -21 -4 -9 -10 -27 -13 -40 -2 -13 -24 -85 -49 -159 -72 -216
-107 -330 -107 -344 0 -15 -62 -204 -84 -258 -19 -44 -19 -48 -6 -48 5 0 16
21 24 47 8 27 29 89 47 138 17 50 38 115 45 145 30 128 36 150 45 150 5 0 9
11 9 24 0 13 9 43 20 68 10 24 31 86 45 138 15 52 30 104 35 115 5 11 18 52
29 90 11 39 33 113 49 166 36 118 46 169 34 169 -5 0 -14 -21 -20 -47z"/>
</g>
</svg>
